<svg xmlns="http://www.w3.org/2000/svg" data-prefix="fab" data-icon="google-plus-g" class="svg-inline--fa fa-google-plus-g fa-w-20" viewBox="0 0 614.40002 384" width="614.4" height="384"><path d="M373.261 164.496c1.834 9.692 3.143 19.384 3.143 31.956C376.404 306.205 302.799 384 192 384 85.916 384 0 298.085 0 192S85.916 0 192 0c51.864 0 95.083 18.859 128.611 50.292l-52.126 50.03C254.34 86.701 229.457 70.723 192 70.723c-65.484 0-118.92 54.221-118.92 121.277 0 67.056 53.436 121.277 118.92 121.277 75.961 0 104.513-54.745 108.965-82.773H192v-66.009h181.261zm185.406 6.437V115.2h-56.001v55.733h-55.733v56.001h55.733v55.733h56.001v-55.733H614.4v-56.001z" fill="currentColor"/></svg>