<?xml version="1.0" encoding="UTF-8" standalone="no"?>
<svg
   xmlns:dc="http://purl.org/dc/elements/1.1/"
   xmlns:cc="http://creativecommons.org/ns#"
   xmlns:rdf="http://www.w3.org/1999/02/22-rdf-syntax-ns#"
   xmlns:svg="http://www.w3.org/2000/svg"
   xmlns="http://www.w3.org/2000/svg"
   xmlns:sodipodi="http://sodipodi.sourceforge.net/DTD/sodipodi-0.dtd"
   xmlns:inkscape="http://www.inkscape.org/namespaces/inkscape"
   aria-hidden="true"
   focusable="false"
   data-prefix="fas"
   data-icon="cog"
   class="svg-inline--fa fa-cog fa-w-16"
   role="img"
   viewBox="0 0 474.82089 496.00186"
   version="1.1"
   id="svg4"
   sodipodi:docname="cog-solid.svg"
   width="474.82089"
   height="496.00186"
   inkscape:version="0.92.4 (5da689c313, 2019-01-14)">
  <metadata
     id="metadata10">
    <rdf:RDF>
      <cc:Work
         rdf:about="">
        <dc:format>image/svg+xml</dc:format>
        <dc:type
           rdf:resource="http://purl.org/dc/dcmitype/StillImage" />
      </cc:Work>
    </rdf:RDF>
  </metadata>
  <defs
     id="defs8" />
  <sodipodi:namedview
     pagecolor="#ffffff"
     bordercolor="#666666"
     borderopacity="1"
     objecttolerance="10"
     gridtolerance="10"
     guidetolerance="10"
     inkscape:pageopacity="0"
     inkscape:pageshadow="2"
     inkscape:window-width="640"
     inkscape:window-height="480"
     id="namedview6"
     showgrid="false"
     inkscape:zoom="0.4609375"
     inkscape:cx="237.35612"
     inkscape:cy="248.10094"
     inkscape:window-x="0"
     inkscape:window-y="0"
     inkscape:window-maximized="0"
     inkscape:current-layer="svg4" />
  <path
     d="m 468.75612,307.60094 -42.6,-24.6 c 4.3,-23.2 4.3,-47 0,-70.2 l 42.6,-24.6 c 4.9,-2.8 7.1,-8.6 5.5,-14 -11.1,-35.6 -30,-67.8 -54.7,-94.600003 -3.8,-4.1 -10,-5.1 -14.8,-2.3 l -42.6,24.600003 c -17.9,-15.400003 -38.5,-27.300003 -60.8,-35.100003 v -49.1 c 0,-5.6 -3.9,-10.4999998 -9.4,-11.6999998 -36.7,-8.2 -74.3,-7.8 -109.2,0 -5.5,1.2 -9.4,6.0999998 -9.4,11.6999998 v 49.2 c -22.2,7.9 -42.8,19.8 -60.8,35.100003 L 70.056119,77.400937 c -4.9,-2.8 -11,-1.9 -14.8,2.3 -24.7,26.700003 -43.6,58.900003 -54.69999957,94.600003 -1.70000003,5.4 0.59999997,11.2 5.49999997,14 l 42.5999996,24.6 c -4.3,23.2 -4.3,47 0,70.2 l -42.5999996,24.6 c -4.9,2.8 -7.1,8.6 -5.49999997,14 11.09999957,35.6 29.99999957,67.8 54.69999957,94.6 3.8,4.1 10,5.1 14.8,2.3 l 42.600001,-24.6 c 17.9,15.4 38.5,27.3 60.8,35.1 v 49.2 c 0,5.6 3.9,10.5 9.4,11.7 36.7,8.2 74.3,7.8 109.2,0 5.5,-1.2 9.4,-6.1 9.4,-11.7 v -49.2 c 22.2,-7.9 42.8,-19.8 60.8,-35.1 l 42.6,24.6 c 4.9,2.8 11,1.9 14.8,-2.3 24.7,-26.7 43.6,-58.9 54.7,-94.6 1.5,-5.5 -0.7,-11.3 -5.6,-14.1 z m -231.4,20.3 c -44.1,0 -80,-35.9 -80,-80 0,-44.1 35.9,-80 80,-80 44.1,0 80,35.9 80,80 0,44.1 -35.9,80 -80,80 z"
     id="path2"
     inkscape:connector-curvature="0"
     style="fill:currentColor" />
</svg>
