<?xml version="1.0" encoding="UTF-8" standalone="no"?>
<svg
   xmlns:dc="http://purl.org/dc/elements/1.1/"
   xmlns:cc="http://creativecommons.org/ns#"
   xmlns:rdf="http://www.w3.org/1999/02/22-rdf-syntax-ns#"
   xmlns:svg="http://www.w3.org/2000/svg"
   xmlns="http://www.w3.org/2000/svg"
   xmlns:sodipodi="http://sodipodi.sourceforge.net/DTD/sodipodi-0.dtd"
   xmlns:inkscape="http://www.inkscape.org/namespaces/inkscape"
   aria-hidden="true"
   focusable="false"
   data-prefix="fab"
   data-icon="google-plus-g"
   class="svg-inline--fa fa-google-plus-g fa-w-20"
   role="img"
   viewBox="0 0 614.40002 384"
   version="1.1"
   id="svg4"
   sodipodi:docname="google-plus-g-brands.svg"
   width="614.40002"
   height="384"
   inkscape:version="0.92.4 (5da689c313, 2019-01-14)">
  <metadata
     id="metadata10">
    <rdf:RDF>
      <cc:Work
         rdf:about="">
        <dc:format>image/svg+xml</dc:format>
        <dc:type
           rdf:resource="http://purl.org/dc/dcmitype/StillImage" />
      </cc:Work>
    </rdf:RDF>
  </metadata>
  <defs
     id="defs8" />
  <sodipodi:namedview
     pagecolor="#ffffff"
     bordercolor="#666666"
     borderopacity="1"
     objecttolerance="10"
     gridtolerance="10"
     guidetolerance="10"
     inkscape:pageopacity="0"
     inkscape:pageshadow="2"
     inkscape:window-width="640"
     inkscape:window-height="480"
     id="namedview6"
     showgrid="false"
     inkscape:zoom="0.4609375"
     inkscape:cx="307.2"
     inkscape:cy="192"
     inkscape:window-x="0"
     inkscape:window-y="0"
     inkscape:window-maximized="0"
     inkscape:current-layer="svg4" />
  <path
     d="m 373.261,164.496 c 1.834,9.692 3.143,19.384 3.143,31.956 C 376.404,306.205 302.799,384 192,384 85.916,384 0,298.085 0,192 0,85.915 85.916,0 192,0 c 51.864,0 95.083,18.859 128.611,50.292 l -52.126,50.03 C 254.34,86.701 229.457,70.723 192,70.723 126.516,70.723 73.08,124.944 73.08,192 c 0,67.056 53.436,121.277 118.92,121.277 75.961,0 104.513,-54.745 108.965,-82.773 H 192 v -66.009 h 181.261 z m 185.406,6.437 V 115.2 h -56.001 v 55.733 h -55.733 v 56.001 h 55.733 v 55.733 h 56.001 V 226.934 H 614.4 v -56.001 z"
     id="path2"
     inkscape:connector-curvature="0"
     style="fill:currentColor" />
</svg>
