<?xml version="1.0" encoding="utf-8"?><svg xmlns="http://www.w3.org/2000/svg" xmlns:xlink="http://www.w3.org/1999/xlink"><symbol class="asvg-inline--fa afa-android afa-w-14" viewBox="0 0 384 447.833" id="android-brands" xmlns="http://www.w3.org/2000/svg"><path d="M57.6 172.57v115.8c0 15.4-12.1 27.7-27.5 27.7-15.3 0-30.1-12.4-30.1-27.7v-115.8c0-15.1 14.8-27.5 30.1-27.5 15.1 0 27.5 12.4 27.5 27.5zm10.8 157c0 16.4 13.2 29.6 29.6 29.6h19.9l.3 61.1c0 36.9 55.2 36.6 55.2 0v-61.1h37.2v61.1c0 36.7 55.5 36.8 55.5 0v-61.1h20.2c16.2 0 29.4-13.2 29.4-29.6v-179.4H68.4zm248-189.1H67.3c0-42.8 25.6-80 63.6-99.4l-19.1-35.3c-2.8-4.9 4.3-8 6.7-3.8l19.4 35.6c34.9-15.5 75-14.7 108.3 0l19.3-35.5c2.5-4.3 9.5-1.1 6.7 3.8l-19.1 35.2c37.7 19.4 63.3 56.6 63.3 99.4zm-170.7-55.5c0-5.7-4.6-10.5-10.5-10.5-5.7 0-10.2 4.8-10.2 10.5s4.6 10.5 10.2 10.5c5.9 0 10.5-4.8 10.5-10.5zm113.4 0c0-5.7-4.6-10.5-10.2-10.5-5.9 0-10.5 4.8-10.5 10.5s4.6 10.5 10.5 10.5c5.6 0 10.2-4.8 10.2-10.5zm94.8 60.1c-15.1 0-27.5 12.1-27.5 27.5v115.8c0 15.4 12.4 27.7 27.5 27.7 15.4 0 30.1-12.4 30.1-27.7v-115.8c0-15.4-14.8-27.5-30.1-27.5z"/></symbol><symbol class="bsvg-inline--fa bfa-apple bfa-w-12" viewBox="0 0 376.4 447.919" id="apple-brands" xmlns="http://www.w3.org/2000/svg"><path d="M314.7 236.7c-.2-36.7 16.4-64.4 50-84.8-18.8-26.9-47.2-41.7-84.7-44.6-35.5-2.8-74.3 20.7-88.5 20.7-15 0-49.4-19.7-76.4-19.7C59.3 109.2 0 152.8 0 241.5q0 39.3 14.4 81.2c12.8 36.7 59 126.7 107.2 125.2 25.2-.6 43-17.9 75.8-17.9 31.8 0 48.3 17.9 76.4 17.9 48.6-.7 90.4-82.5 102.6-119.3-65.2-30.7-61.7-90-61.7-91.9zM258.1 72.5c27.3-32.4 24.8-61.9 24-72.5-24.1 1.4-52 16.4-67.9 34.9-17.5 19.8-27.8 44.3-25.6 71.9 26.1 2 49.9-11.4 69.5-34.3z"/></symbol><symbol class="csvg-inline--fa cfa-cog cfa-w-16" viewBox="0 0 474.821 496.002" id="cog-solid" xmlns="http://www.w3.org/2000/svg"><path d="M468.756 307.6l-42.6-24.6c4.3-23.2 4.3-47 0-70.2l42.6-24.6c4.9-2.8 7.1-8.6 5.5-14-11.1-35.6-30-67.8-54.7-94.6-3.8-4.1-10-5.1-14.8-2.3l-42.6 24.6c-17.9-15.4-38.5-27.3-60.8-35.1V17.7c0-5.6-3.9-10.5-9.4-11.7-36.7-8.2-74.3-7.8-109.2 0-5.5 1.2-9.4 6.1-9.4 11.7v49.2c-22.2 7.9-42.8 19.8-60.8 35.1l-42.5-24.6c-4.9-2.8-11-1.9-14.8 2.3-24.7 26.7-43.6 58.9-54.7 94.6-1.7 5.4.6 11.2 5.5 14l42.6 24.6c-4.3 23.2-4.3 47 0 70.2l-42.6 24.6c-4.9 2.8-7.1 8.6-5.5 14 11.1 35.6 30 67.8 54.7 94.6 3.8 4.1 10 5.1 14.8 2.3l42.6-24.6c17.9 15.4 38.5 27.3 60.8 35.1v49.2c0 5.6 3.9 10.5 9.4 11.7 36.7 8.2 74.3 7.8 109.2 0 5.5-1.2 9.4-6.1 9.4-11.7v-49.2c22.2-7.9 42.8-19.8 60.8-35.1l42.6 24.6c4.9 2.8 11 1.9 14.8-2.3 24.7-26.7 43.6-58.9 54.7-94.6 1.5-5.5-.7-11.3-5.6-14.1zm-231.4 20.3c-44.1 0-80-35.9-80-80s35.9-80 80-80 80 35.9 80 80-35.9 80-80 80z"/></symbol><symbol class="dsvg-inline--fa dfa-envelope dfa-w-16" viewBox="0 0 512 384" id="envelope-solid" xmlns="http://www.w3.org/2000/svg"><path d="M502.3 126.8c3.9-3.1 9.7-.2 9.7 4.7V336c0 26.5-21.5 48-48 48H48c-26.5 0-48-21.5-48-48V131.6c0-5 5.7-7.8 9.7-4.7 22.4 17.4 52.1 39.5 154.1 113.6 21.1 15.4 56.7 47.8 92.2 47.6 35.7.3 72-32.8 92.3-47.6 102-74.1 131.6-96.3 154-113.7zM256 256c23.2.4 56.6-29.2 73.4-41.4 132.7-96.3 142.8-104.7 173.4-128.7 5.8-4.5 9.2-11.5 9.2-18.9V48c0-26.5-21.5-48-48-48H48C21.5 0 0 21.5 0 48v19c0 7.4 3.4 14.3 9.2 18.9 30.6 23.9 40.7 32.4 173.4 128.7 16.8 12.2 50.2 41.8 73.4 41.4z"/></symbol><symbol class="esvg-inline--fa efa-facebook-f efa-w-10" viewBox="0 0 320 512" id="facebook-f-brands" xmlns="http://www.w3.org/2000/svg"><path d="M279.14 288l14.22-92.66h-88.91v-60.13c0-25.35 12.42-50.06 52.24-50.06h40.42V6.26S260.43 0 225.36 0c-73.22 0-121.08 44.38-121.08 124.72v70.62H22.89V288h81.39v224h100.17V288z"/></symbol><symbol class="fsvg-inline--fa ffa-fort-awesome ffa-w-16" viewBox="0 0 512 512" id="fort-awesome-brands" xmlns="http://www.w3.org/2000/svg"><path d="M489.2 287.9h-27.4c-2.6 0-4.6 2-4.6 4.6v32h-36.6V146.2c0-2.6-2-4.6-4.6-4.6h-27.4c-2.6 0-4.6 2-4.6 4.6v32h-36.6v-32c0-2.6-2-4.6-4.6-4.6h-27.4c-2.6 0-4.6 2-4.6 4.6v32h-36.6v-32c0-6-8-4.6-11.7-4.6v-38c8.3-2 17.1-3.4 25.7-3.4 10.9 0 20.9 4.3 31.4 4.3 4.6 0 27.7-1.1 27.7-8v-60c0-2.6-2-4.6-4.6-4.6-5.1 0-15.1 4.3-24 4.3-9.7 0-20.9-4.3-32.6-4.3-8 0-16 1.1-23.7 2.9v-4.9c5.4-2.6 9.1-8.3 9.1-14.3 0-20.7-31.4-20.8-31.4 0 0 6 3.7 11.7 9.1 14.3v111.7c-3.7 0-11.7-1.4-11.7 4.6v32h-36.6v-32c0-2.6-2-4.6-4.6-4.6h-27.4c-2.6 0-4.6 2-4.6 4.6v32H128v-32c0-2.6-2-4.6-4.6-4.6H96c-2.6 0-4.6 2-4.6 4.6v178.3H54.8v-32c0-2.6-2-4.6-4.6-4.6H22.8c-2.6 0-4.6 2-4.6 4.6V512h182.9v-96c0-72.6 109.7-72.6 109.7 0v96h182.9V292.5c.1-2.6-1.9-4.6-4.5-4.6zm-288.1-4.5c0 2.6-2 4.6-4.6 4.6h-27.4c-2.6 0-4.6-2-4.6-4.6v-64c0-2.6 2-4.6 4.6-4.6h27.4c2.6 0 4.6 2 4.6 4.6v64zm146.4 0c0 2.6-2 4.6-4.6 4.6h-27.4c-2.6 0-4.6-2-4.6-4.6v-64c0-2.6 2-4.6 4.6-4.6h27.4c2.6 0 4.6 2 4.6 4.6v64z"/></symbol><symbol class="gsvg-inline--fa gfa-google-plus-g gfa-w-20" viewBox="0 0 614.4 384" id="google-plus-g-brands" xmlns="http://www.w3.org/2000/svg"><path d="M373.261 164.496c1.834 9.692 3.143 19.384 3.143 31.956C376.404 306.205 302.799 384 192 384 85.916 384 0 298.085 0 192S85.916 0 192 0c51.864 0 95.083 18.859 128.611 50.292l-52.126 50.03C254.34 86.701 229.457 70.723 192 70.723c-65.484 0-118.92 54.221-118.92 121.277 0 67.056 53.436 121.277 118.92 121.277 75.961 0 104.513-54.745 108.965-82.773H192v-66.009h181.261zm185.406 6.437V115.2h-56.001v55.733h-55.733v56.001h55.733v55.733h56.001v-55.733H614.4v-56.001z"/></symbol><symbol class="hsvg-inline--fa hfa-hourglass-end hfa-w-12" viewBox="0 0 384 512" id="hourglass-end-solid" xmlns="http://www.w3.org/2000/svg"><path d="M360 64c13.255 0 24-10.745 24-24V24c0-13.255-10.745-24-24-24H24C10.745 0 0 10.745 0 24v16c0 13.255 10.745 24 24 24 0 90.965 51.016 167.734 120.842 192C75.016 280.266 24 357.035 24 448c-13.255 0-24 10.745-24 24v16c0 13.255 10.745 24 24 24h336c13.255 0 24-10.745 24-24v-16c0-13.255-10.745-24-24-24 0-90.965-51.016-167.734-120.842-192C308.984 231.734 360 154.965 360 64zM192 208c-57.787 0-104-66.518-104-144h208c0 77.945-46.51 144-104 144z"/></symbol><symbol class="isvg-inline--fa ifa-instagram ifa-w-14" viewBox="0 0 448.25 448.15" id="instagram-brands" xmlns="http://www.w3.org/2000/svg"><path d="M224.175 109.175c-63.6 0-114.9 51.3-114.9 114.9 0 63.6 51.3 114.9 114.9 114.9 63.6 0 114.9-51.3 114.9-114.9 0-63.6-51.3-114.9-114.9-114.9zm0 189.6c-41.1 0-74.7-33.5-74.7-74.7s33.5-74.7 74.7-74.7 74.7 33.5 74.7 74.7-33.6 74.7-74.7 74.7zm146.4-194.3c0 14.9-12 26.8-26.8 26.8-14.9 0-26.8-12-26.8-26.8s12-26.8 26.8-26.8 26.8 12 26.8 26.8zm76.1 27.2c-1.7-35.9-9.9-67.7-36.2-93.9-26.2-26.2-58-34.4-93.9-36.2-37-2.1-147.9-2.1-184.9 0-35.8 1.7-67.6 9.9-93.9 36.1-26.3 26.2-34.4 58-36.2 93.9-2.1 37-2.1 147.9 0 184.9 1.7 35.9 9.9 67.7 36.2 93.9 26.3 26.2 58 34.4 93.9 36.2 37 2.1 147.9 2.1 184.9 0 35.9-1.7 67.7-9.9 93.9-36.2 26.2-26.2 34.4-58 36.2-93.9 2.1-37 2.1-147.8 0-184.8zm-47.8 224.5c-7.8 19.6-22.9 34.7-42.6 42.6-29.5 11.7-99.5 9-132.1 9-32.6 0-102.7 2.6-132.1-9-19.6-7.8-34.7-22.9-42.6-42.6-11.7-29.5-9-99.5-9-132.1 0-32.6-2.6-102.7 9-132.1 7.8-19.6 22.9-34.7 42.6-42.6 29.5-11.7 99.5-9 132.1-9 32.6 0 102.7-2.6 132.1 9 19.6 7.8 34.7 22.9 42.6 42.6 11.7 29.5 9 99.5 9 132.1 0 32.6 2.7 102.7-9 132.1z"/></symbol><symbol class="jsvg-inline--fa jfa-map-marker-alt jfa-w-12" viewBox="0 0 384 512" id="map-marker-alt-solid" xmlns="http://www.w3.org/2000/svg"><path d="M172.268 501.67C26.97 291.031 0 269.413 0 192 0 85.961 85.961 0 192 0s192 85.961 192 192c0 77.413-26.97 99.031-172.268 309.67-9.535 13.774-29.93 13.773-39.464 0zM192 272c44.183 0 80-35.817 80-80s-35.817-80-80-80-80 35.817-80 80 35.817 80 80 80z"/></symbol><symbol viewBox="0 0 56 56" id="menu" xmlns="http://www.w3.org/2000/svg"><path d="M28 0C12.561 0 0 12.561 0 28s12.561 28 28 28 28-12.561 28-28S43.439 0 28 0zm0 54C13.663 54 2 42.336 2 28S13.663 2 28 2s26 11.664 26 26-11.663 26-26 26z"/><path d="M15 17h26a1 1 0 1 0 0-2H15a1 1 0 1 0 0 2zm30 14H11a1 1 0 1 0 0 2h34a1 1 0 1 0 0-2zm0-8H11a1 1 0 1 0 0 2h34a1 1 0 1 0 0-2zm-4 16H15a1 1 0 1 0 0 2h26a1 1 0 1 0 0-2z"/></symbol><symbol class="lsvg-inline--fa lfa-mobile-alt lfa-w-10" viewBox="0 0 320 512" id="mobile-alt-solid" xmlns="http://www.w3.org/2000/svg"><path d="M272 0H48C21.5 0 0 21.5 0 48v416c0 26.5 21.5 48 48 48h224c26.5 0 48-21.5 48-48V48c0-26.5-21.5-48-48-48zM160 480c-17.7 0-32-14.3-32-32s14.3-32 32-32 32 14.3 32 32-14.3 32-32 32zm112-108c0 6.6-5.4 12-12 12H60c-6.6 0-12-5.4-12-12V60c0-6.6 5.4-12 12-12h200c6.6 0 12 5.4 12 12v312z"/></symbol><symbol class="msvg-inline--fa mfa-mouse-pointer mfa-w-10" viewBox="0 0 320 512" id="mouse-pointer-solid" xmlns="http://www.w3.org/2000/svg"><path d="M302.189 329.126H196.105l55.831 135.993c3.889 9.428-.555 19.999-9.444 23.999l-49.165 21.427c-9.165 4-19.443-.571-23.332-9.714l-53.053-129.136-86.664 89.138C18.729 472.71 0 463.553 0 447.977V18.299C0 1.899 19.921-6.096 30.277 5.443l284.412 292.542c11.472 11.179 3.007 31.14-12.5 31.14z"/></symbol><symbol viewBox="0 0 0 0" id="sprite" xmlns="http://www.w3.org/2000/svg"/><symbol class="osvg-inline--fa ofa-star ofa-w-18" viewBox="0 0 576 512" id="star-solid" xmlns="http://www.w3.org/2000/svg"><path d="M259.3 17.8L194 150.2 47.9 171.5c-26.2 3.8-36.7 36.1-17.7 54.6l105.7 103-25 145.5c-4.5 26.3 23.2 46 46.4 33.7L288 439.6l130.7 68.7c23.2 12.2 50.9-7.4 46.4-33.7l-25-145.5 105.7-103c19-18.5 8.5-50.8-17.7-54.6L382 150.2 316.7 17.8c-11.7-23.6-45.6-23.9-57.4 0z"/></symbol><symbol class="psvg-inline--fa pfa-twitter pfa-w-16" viewBox="0 0 511.998 415.837" id="twitter-brands" xmlns="http://www.w3.org/2000/svg"><path d="M459.37 103.634c.325 4.548.325 9.097.325 13.645 0 138.72-105.583 298.558-298.558 298.558-59.452 0-114.68-17.219-161.137-47.106 8.447.974 16.568 1.299 25.34 1.299 49.055 0 94.213-16.568 130.274-44.832-46.132-.975-84.792-31.188-98.112-72.772 6.498.974 12.995 1.624 19.818 1.624 9.421 0 18.843-1.3 27.614-3.573-48.081-9.747-84.143-51.98-84.143-102.985v-1.299c13.969 7.797 30.214 12.67 47.431 13.319-28.264-18.843-46.781-51.005-46.781-87.391 0-19.492 5.197-37.36 14.294-52.954C87.39 82.842 165.035 124.425 252.1 128.974c-1.624-7.797-2.599-15.918-2.599-24.04C249.501 47.106 296.283 0 354.435 0c30.213 0 57.502 12.67 76.67 33.137 23.715-4.548 46.456-13.32 66.599-25.34-7.798 24.366-24.366 44.833-46.132 57.827 21.117-2.273 41.584-8.122 60.426-16.243-14.292 20.791-32.161 39.308-52.628 54.253z"/></symbol></svg>